<?xml version="1.0" standalone="no"?>
<!DOCTYPE svg PUBLIC "-//W3C//DTD SVG 20010904//EN"
 "http://www.w3.org/TR/2001/REC-SVG-20010904/DTD/svg10.dtd">
<svg version="1.0" xmlns="http://www.w3.org/2000/svg"
 width="700.000000pt" height="700.000000pt" viewBox="0 0 700.000000 700.000000"
 preserveAspectRatio="xMidYMid meet">
<metadata>
Created by potrace 1.14, written by Peter Selinger 2001-2017
</metadata>
<g transform="translate(0.000000,700.000000) scale(0.100000,-0.100000)"
fill="#000000" stroke="none">
<path d="M3257 6984 c-283 -40 -522 -129 -747 -279 -52 -35 -212 -159 -355
-275 -143 -117 -278 -226 -299 -243 -22 -18 -67 -55 -100 -82 -34 -28 -95 -77
-136 -110 -41 -33 -80 -64 -86 -70 -6 -5 -161 -131 -343 -279 -183 -148 -360
-299 -393 -335 -320 -349 -395 -879 -186 -1320 95 -199 162 -273 497 -544 130
-105 241 -196 248 -202 14 -12 15 -12 113 -90 41 -33 80 -64 86 -70 6 -5 30
-26 54 -45 24 -19 86 -70 139 -113 53 -43 103 -83 111 -90 8 -7 38 -30 65 -52
28 -22 52 -42 55 -45 3 -3 28 -24 55 -45 28 -22 52 -42 55 -45 4 -4 85 -69
223 -180 11 -8 24 -20 31 -25 6 -6 38 -31 71 -56 241 -180 508 -293 815 -343
82 -14 121 -17 220 -20 440 -11 865 137 1206 420 164 136 190 159 239 209 166
171 57 450 -179 460 -108 4 -157 -24 -371 -216 -165 -149 -387 -260 -605 -304
-205 -41 -461 -21 -661 51 -181 65 -256 113 -545 349 -60 49 -130 106 -154
125 -35 28 -175 142 -305 248 -42 35 -180 146 -513 416 -197 160 -361 300
-384 330 -53 66 -105 175 -122 257 -9 39 -13 105 -11 169 3 119 30 213 87 307
55 90 75 109 408 378 34 28 74 60 88 72 56 46 279 226 316 256 22 18 114 93
206 167 645 526 666 541 803 608 166 80 352 123 537 124 63 0 132 -3 154 -6
21 -3 56 -8 78 -11 123 -19 315 -92 435 -167 83 -51 45 -22 557 -437 226 -183
429 -348 450 -365 21 -17 66 -54 100 -81 52 -43 225 -184 290 -235 11 -8 35
-29 55 -45 20 -17 59 -48 86 -70 130 -103 218 -235 252 -380 15 -65 14 -198
-2 -279 -20 -102 -16 -175 13 -232 47 -91 160 -156 259 -148 195 16 278 156
288 484 8 251 -59 485 -199 694 -82 123 -149 190 -348 352 -101 81 -212 172
-248 201 -36 29 -69 57 -75 61 -5 4 -41 33 -80 65 -38 32 -75 61 -80 65 -6 5
-87 70 -180 146 -94 76 -188 152 -209 169 -22 18 -117 95 -211 172 -95 77
-189 154 -210 170 -21 17 -43 35 -49 41 -27 25 -128 95 -206 140 -151 88 -313
154 -470 191 -94 22 -101 23 -145 29 -22 3 -51 8 -65 11 -48 11 -385 10 -473
-3z"/>
<path d="M3418 4975 c-2 -2 -45 -5 -97 -9 -51 -3 -96 -8 -100 -10 -3 -3 -27
-7 -51 -11 -231 -33 -538 -165 -737 -317 -127 -97 -292 -238 -317 -271 -80
-107 -67 -247 34 -348 53 -53 84 -69 167 -84 51 -9 172 36 216 80 37 36 234
190 293 228 134 86 273 141 444 175 122 24 356 23 475 -2 161 -35 321 -100
440 -180 48 -32 565 -444 665 -530 14 -11 45 -37 70 -57 91 -73 496 -401 515
-417 11 -10 54 -44 95 -77 41 -33 80 -64 86 -70 6 -5 49 -41 97 -80 154 -126
230 -272 244 -466 12 -181 -48 -347 -171 -475 -39 -40 -206 -181 -371 -314
-165 -133 -318 -257 -340 -275 -22 -18 -155 -126 -295 -239 -140 -114 -309
-251 -375 -305 -220 -179 -315 -238 -475 -296 -159 -57 -246 -70 -445 -70
-155 1 -250 15 -378 57 -58 18 -218 92 -262 120 -59 38 -131 92 -263 200 -81
65 -154 124 -162 131 -40 32 -126 102 -130 107 -3 3 -50 41 -105 85 -55 43
-127 102 -161 130 -34 27 -79 64 -100 81 -31 25 -178 144 -304 247 -8 7 -96
78 -196 159 -207 168 -256 218 -309 319 -62 119 -76 188 -70 368 5 146 4 157
-18 205 -48 103 -135 159 -247 160 -101 0 -176 -42 -233 -129 -75 -115 -70
-495 10 -695 3 -8 7 -19 8 -25 14 -54 106 -220 171 -305 84 -111 127 -149 524
-470 120 -97 281 -227 315 -256 22 -18 108 -87 190 -154 83 -67 168 -136 189
-153 520 -424 564 -456 737 -543 123 -61 258 -113 369 -139 180 -43 288 -54
485 -50 406 8 771 143 1100 407 44 35 202 162 350 283 149 121 356 288 460
373 105 85 199 161 210 170 11 10 67 55 125 102 58 47 114 92 125 101 11 9 72
60 135 112 101 83 166 150 246 255 12 15 36 54 54 87 18 33 36 65 40 70 14 18
88 249 95 295 3 25 8 63 11 85 39 277 -41 600 -204 830 -79 112 -151 180 -412
391 -135 109 -312 252 -394 319 -82 66 -181 146 -220 178 -39 32 -78 64 -86
70 -112 90 -226 182 -230 187 -3 3 -25 21 -50 40 -25 19 -56 45 -70 57 -83 72
-277 222 -345 268 -72 48 -272 155 -290 155 -4 0 -21 6 -38 14 -34 15 -180 62
-219 70 -20 4 -80 16 -153 30 -68 13 -357 29 -367 21z"/>
</g>
</svg>
