<svg version="1.1" xmlns="http://www.w3.org/2000/svg" xmlns:xlink="http://www.w3.org/1999/xlink" viewBox="0 0 172 172"><g fill="none" fill-rule="nonzero" stroke="none" stroke-width="1" stroke-linecap="butt" stroke-linejoin="miter" stroke-miterlimit="10" stroke-dasharray="" stroke-dashoffset="0" font-family="none" font-weight="none" font-size="none" text-anchor="none" style="mix-blend-mode: normal"><path d="M0,172v-172h172v172z" fill="none"></path><g fill="#3498db"><path d="M22.93781,13.76c-5.06024,0 -9.17781,4.11757 -9.17781,9.17781v126.13109c0,5.0568 4.11757,9.1711 9.17781,9.1711h126.13109c5.0568,0 9.1711,-4.11757 9.1711,-9.17781v-126.12437c0,-5.06024 -4.11757,-9.17781 -9.17781,-9.17781zM39.99,68.8h13.84063c6.8456,0 11.52937,4.69839 11.52937,11.63687c0,6.81808 -4.84948,11.48906 -11.7914,11.48906h-7.44438v11.27406h-6.13422zM72.24,68.8h6.2014v14.05563h16.86406v-14.05563h6.17453v33.97h-6.17453v-14.66703h-16.86406v14.66703h-6.2014zM110.08,68.8h13.84063c6.84904,0 11.52937,4.69839 11.52937,11.63687c0,6.81808 -4.84948,11.48906 -11.7914,11.48906h-7.44438v11.27406h-6.13422zM46.12422,73.94656v12.87984h6.06703c4.37568,0 6.94047,-2.28561 6.94047,-6.38953c0,-4.22088 -2.49647,-6.49031 -6.92031,-6.49031zM116.21422,73.94656v12.87984h6.06703c4.37568,0 6.94047,-2.28561 6.94047,-6.38953c0,-4.22088 -2.49647,-6.49031 -6.92031,-6.49031z"></path></g></g></svg>